<?xml version="1.0" standalone="no"?><!DOCTYPE svg PUBLIC "-//W3C//DTD SVG 1.1//EN" "http://www.w3.org/Graphics/SVG/1.1/DTD/svg11.dtd"><svg class="icon" width="200px" height="200.00px" viewBox="0 0 1024 1024" version="1.1" xmlns="http://www.w3.org/2000/svg"><path d="M765.44 258.56c12.714667 12.731733 12.2368 34.048-0.6656 48.810667l-1.911467 2.048L560.2816 512l202.581333 202.581333c14.7456 14.7456 15.889067 37.512533 2.56 50.858667-12.714667 12.714667-34.048 12.2368-48.776533-0.6656l-2.048-1.911467L512 560.2816l-202.581333 202.581333c-14.7456 14.7456-37.512533 15.889067-50.858667 2.56-12.714667-12.714667-12.2368-34.048 0.648533-48.776533l1.928534-2.048L463.7184 512l-202.581333-202.581333c-14.7456-14.7456-15.889067-37.512533-2.56-50.858667 12.714667-12.714667 34.030933-12.2368 48.776533 0.648533l2.048 1.928534L512 463.7184l202.5984-202.581333c14.7456-14.7456 37.512533-15.889067 50.858667-2.56z" fill="#333333" /></svg>